#Comment line ignore any data following # character 
#Hierarchical Translation and Rotation (.htr) file 
[Header]	
#Header keywords are followed by a single value 
FileType HTR		#Single word string
DataType HTRS		#Translation followed by rotation and scale data
FileVersion 1		#integer
NumSegments 64		#integer
NumFrames 3		#integer
DataFrameRate 30		#integer, data frame rate in this file
EulerRotationOrder ZYX
CalibrationUnits mm
RotationUnits Degrees
GlobalAxisofGravity Y
BoneLengthAxis Y
ScaleFactor 1.00
[SegmentNames&Hierarchy]
#CHILD	PARENT
Pinger_Root GLOBAL
Pelvis Pinger_Root
L_Hip Pelvis
R_Hip Pelvis
Rear_Leg01 Pelvis
Spine1 Pelvis
L_Leg01 L_Hip
L_Leg02 L_Leg01
L_Leg03 L_Leg02
L_Foot L_Leg03
L_Toe1_01 L_Foot
L_Toe2_01 L_Foot
L_Toe3_01 L_Foot
planeAlignerLeft L_Foot
L_Toe1_02 L_Toe1_01
L_Toe1_03 L_Toe1_02
L_Toe2_02 L_Toe2_01
L_Toe2_03 L_Toe2_02
L_Toe3_02 L_Toe3_01
L_Toe3_03 L_Toe3_02
planeLockWeightLeft planeAlignerLeft
R_Leg01 R_Hip
R_Leg02 R_Leg01
R_Leg03 R_Leg02
R_Foot R_Leg03
planeAlignerRight R_Foot
R_Toe1_01 R_Foot
R_Toe2_01 R_Foot
R_Toe3_01 R_Foot
planeLockWeightRight planeAlignerRight
R_Toe1_02 R_Toe1_01
R_Toe1_03 R_Toe1_02
R_Toe2_02 R_Toe2_01
R_Toe2_03 R_Toe2_02
R_Toe3_02 R_Toe3_01
R_Toe3_03 R_Toe3_02
Rear_Leg02 Rear_Leg01
Rear_Leg03 Rear_Leg02
Rear_Leg04 Rear_Leg03
Rear_Foot Rear_Leg04
planeAlignerCenter Rear_Foot
Rear_Toe1_01 Rear_Foot
Rear_Toe2_01 Rear_Foot
Rear_Toe3_01 Rear_Foot
planeLockWeightCenter planeAlignerCenter
Rear_Toe1_02 Rear_Toe1_01
Rear_Toe1_03 Rear_Toe1_02
Rear_Toe2_02 Rear_Toe2_01
Rear_Toe2_03 Rear_Toe2_02
Rear_Toe3_02 Rear_Toe3_01
Rear_Toe3_03 Rear_Toe3_02
Back_Bone Spine1
Head Spine1
Motor_Bone Back_Bone
Ping_Mechanism Back_Bone
BN_LookIK Head
bottomMouth Head
L_Mouth01 Head
L_mouthFront Head
mouthGun Head
R_Mouth01 Head
R_mouthFront Head
TopMouth Head
weapon_bone Head
[BasePosition]
#SegmentName Tx, Ty, Tz, Rx, Ry, Rz, BoneLength
Pinger_Root 0.000000 0.000000 0.000000 -90.000000 0.000000 0.000000 10.000000 
Pelvis 0.000000 0.000000 0.000000 0.000000 0.000000 0.000000 10.000000 
L_Hip 0.000000 0.000000 0.000000 0.000000 0.000000 0.000000 10.000000 
R_Hip 0.000000 0.000000 0.000000 0.000000 0.000000 0.000000 10.000000 
Rear_Leg01 0.000000 0.000000 0.000000 0.000000 0.000000 0.000000 10.000000 
Spine1 0.000000 0.000000 0.000000 0.000000 0.000000 0.000000 10.000000 
L_Leg01 0.000000 0.000000 0.000000 0.000000 0.000000 0.000000 10.000000 
L_Leg02 0.000000 0.000000 0.000000 0.000000 0.000000 0.000000 10.000000 
L_Leg03 0.000000 0.000000 0.000000 0.000000 0.000000 0.000000 10.000000 
L_Foot 0.000000 0.000000 0.000000 0.000000 0.000000 0.000000 10.000000 
L_Toe1_01 0.000000 0.000000 0.000000 0.000000 0.000000 0.000000 10.000000 
L_Toe2_01 0.000000 0.000000 0.000000 0.000000 0.000000 0.000000 10.000000 
L_Toe3_01 0.000000 0.000000 0.000000 0.000000 0.000000 0.000000 10.000000 
planeAlignerLeft 0.000000 0.000000 0.000000 0.000000 0.000000 0.000000 10.000000 
L_Toe1_02 0.000000 0.000000 0.000000 0.000000 0.000000 0.000000 10.000000 
L_Toe1_03 0.000000 0.000000 0.000000 0.000000 0.000000 0.000000 10.000000 
L_Toe2_02 0.000000 0.000000 0.000000 0.000000 0.000000 0.000000 10.000000 
L_Toe2_03 0.000000 0.000000 0.000000 0.000000 0.000000 0.000000 10.000000 
L_Toe3_02 0.000000 0.000000 0.000000 0.000000 0.000000 0.000000 10.000000 
L_Toe3_03 0.000000 0.000000 0.000000 0.000000 0.000000 0.000000 10.000000 
planeLockWeightLeft 0.000000 0.000000 0.000000 0.000000 0.000000 0.000000 10.000000 
R_Leg01 0.000000 0.000000 0.000000 0.000000 0.000000 0.000000 10.000000 
R_Leg02 0.000000 0.000000 0.000000 0.000000 0.000000 0.000000 10.000000 
R_Leg03 0.000000 0.000000 0.000000 0.000000 0.000000 0.000000 10.000000 
R_Foot 0.000000 0.000000 0.000000 0.000000 0.000000 0.000000 10.000000 
planeAlignerRight 0.000000 0.000000 0.000000 0.000000 0.000000 0.000000 10.000000 
R_Toe1_01 0.000000 0.000000 0.000000 0.000000 0.000000 0.000000 10.000000 
R_Toe2_01 0.000000 0.000000 0.000000 0.000000 0.000000 0.000000 10.000000 
R_Toe3_01 0.000000 0.000000 0.000000 0.000000 0.000000 0.000000 10.000000 
planeLockWeightRight 0.000000 0.000000 0.000000 0.000000 0.000000 0.000000 10.000000 
R_Toe1_02 0.000000 0.000000 0.000000 0.000000 0.000000 0.000000 10.000000 
R_Toe1_03 0.000000 0.000000 0.000000 0.000000 0.000000 0.000000 10.000000 
R_Toe2_02 0.000000 0.000000 0.000000 0.000000 0.000000 0.000000 10.000000 
R_Toe2_03 0.000000 0.000000 0.000000 0.000000 0.000000 0.000000 10.000000 
R_Toe3_02 0.000000 0.000000 0.000000 0.000000 0.000000 0.000000 10.000000 
R_Toe3_03 0.000000 0.000000 0.000000 0.000000 0.000000 0.000000 10.000000 
Rear_Leg02 0.000000 0.000000 0.000000 0.000000 0.000000 0.000000 10.000000 
Rear_Leg03 0.000000 0.000000 0.000000 0.000000 0.000000 0.000000 10.000000 
Rear_Leg04 0.000000 0.000000 0.000000 0.000000 0.000000 0.000000 10.000000 
Rear_Foot 0.000000 0.000000 0.000000 0.000000 0.000000 0.000000 10.000000 
planeAlignerCenter 0.000000 0.000000 0.000000 0.000000 0.000000 0.000000 10.000000 
Rear_Toe1_01 0.000000 0.000000 0.000000 0.000000 0.000000 0.000000 10.000000 
Rear_Toe2_01 0.000000 0.000000 0.000000 0.000000 0.000000 0.000000 10.000000 
Rear_Toe3_01 0.000000 0.000000 0.000000 0.000000 0.000000 0.000000 10.000000 
planeLockWeightCenter 0.000000 0.000000 0.000000 0.000000 0.000000 0.000000 10.000000 
Rear_Toe1_02 0.000000 0.000000 0.000000 0.000000 0.000000 0.000000 10.000000 
Rear_Toe1_03 0.000000 0.000000 0.000000 0.000000 0.000000 0.000000 10.000000 
Rear_Toe2_02 0.000000 0.000000 0.000000 0.000000 0.000000 0.000000 10.000000 
Rear_Toe2_03 0.000000 0.000000 0.000000 0.000000 0.000000 0.000000 10.000000 
Rear_Toe3_02 0.000000 0.000000 0.000000 0.000000 0.000000 0.000000 10.000000 
Rear_Toe3_03 0.000000 0.000000 0.000000 0.000000 0.000000 0.000000 10.000000 
Back_Bone 0.000000 0.000000 0.000000 0.000000 0.000000 0.000000 10.000000 
Head 0.000000 0.000000 0.000000 0.000000 0.000000 0.000000 10.000000 
Motor_Bone 0.000000 0.000000 0.000000 0.000000 0.000000 0.000000 10.000000 
Ping_Mechanism 0.000000 0.000000 0.000000 0.000000 0.000000 0.000000 10.000000 
BN_LookIK 0.000000 0.000000 0.000000 0.000000 0.000000 0.000000 10.000000 
bottomMouth 0.000000 0.000000 0.000000 0.000000 0.000000 0.000000 10.000000 
L_Mouth01 0.000000 0.000000 0.000000 0.000000 0.000000 0.000000 10.000000 
L_mouthFront 0.000000 0.000000 0.000000 0.000000 0.000000 0.000000 10.000000 
mouthGun 0.000000 0.000000 0.000000 0.000000 0.000000 0.000000 10.000000 
R_Mouth01 0.000000 0.000000 0.000000 0.000000 0.000000 0.000000 10.000000 
R_mouthFront 0.000000 0.000000 0.000000 0.000000 0.000000 0.000000 10.000000 
TopMouth 0.000000 0.000000 0.000000 0.000000 0.000000 0.000000 10.000000 
weapon_bone 0.000000 0.000000 0.000000 0.000000 0.000000 0.000000 10.000000 
#Beginning of Data. Separated by tabs
#Fr	Tx	Ty	Tz	Rx	Ry	Rz	SF
[Pinger_Root]
60 0.000000 0.000000 0.000000 -0.000075 -0.000000 -0.000020 0.000000
61 0.000000 0.000000 0.000000 -0.000075 -0.000000 -0.000020 0.000000
62 0.000000 0.000000 0.000000 -0.000075 -0.000000 -0.000020 0.000000
[Pelvis]
60 65.522118 916.420654 4372.416992 -122.504509 -85.301811 114.898811 4467.902344
61 68.254013 916.487305 4401.567383 -114.118050 -85.658234 106.503929 4496.487793
62 70.985954 916.524963 4423.512207 -104.481796 -85.906624 96.859245 4518.021484
[L_Hip]
60 5.766392 125.831482 872.656799 160.158691 -45.484905 122.312202 881.701050
61 5.766392 125.831482 872.656799 160.158691 -45.484905 122.312202 881.701050
62 5.766392 125.831482 872.656799 160.158691 -45.484905 122.312202 881.701050
[R_Hip]
60 5.765438 125.836372 -872.654907 38.087841 49.812687 125.703735 881.699829
61 5.765438 125.836372 -872.654907 38.087841 49.812687 125.703735 881.699829
62 5.765438 125.836372 -872.654907 38.087841 49.812687 125.703735 881.699829
[Rear_Leg01]
60 -192.298416 -925.602966 -0.001907 169.006836 0.374988 -159.168045 945.367432
61 -192.298416 -925.602966 -0.001907 169.286774 1.038423 -159.384995 945.367432
62 -192.298416 -925.602966 -0.001907 169.564270 1.702875 -159.598755 945.367432
[Spine1]
60 290.604584 5.007505 0.000477 7.904751 1.058218 19.267193 290.647736
61 290.604584 5.007505 0.000477 7.641003 0.355474 19.264326 290.647736
62 290.604584 5.007505 0.000477 7.377304 -0.347244 19.264702 290.647736
[L_Leg01]
60 761.932007 -0.002384 -0.069261 26.008364 -10.263620 -16.123957 761.932068
61 761.932007 -0.002384 -0.069261 24.686977 -12.810941 -13.012431 761.932068
62 761.932007 -0.002384 -0.069261 23.399862 -14.860962 -10.250821 761.932068
[L_Leg02]
60 1441.140503 -0.000954 -0.000715 3.578912 0.190739 -123.267967 1441.140503
61 1441.140503 -0.000954 -0.000715 3.117571 -0.005712 -126.091110 1441.140503
62 1441.140503 -0.000954 -0.000715 2.754302 -0.140385 -128.209351 1441.140503
[L_Leg03]
60 1686.963989 -0.000715 -0.000954 -0.057641 0.029940 126.308617 1686.963989
61 1686.963989 -0.000715 -0.000954 -0.045123 0.024192 122.749146 1686.963989
62 1686.963989 -0.000715 -0.000954 -0.036525 0.016868 119.540787 1686.963989
[L_Foot]
60 3041.570068 -30.715107 11.297464 2.000033 13.070928 50.781055 3041.746094
61 3041.570068 -30.715107 11.297464 1.977158 13.056184 52.995277 3041.746094
62 3041.570068 -30.715107 11.297464 1.960994 13.069588 54.757317 3041.746094
[L_Toe1_01]
60 -188.216690 -224.732346 -21.137953 93.718430 -6.865189 -171.967834 293.899567
61 -188.216690 -224.732346 -21.137953 93.718658 -6.864295 -171.968719 293.899567
62 -188.216690 -224.732346 -21.137953 93.718880 -6.863401 -171.969574 293.899567
[L_Toe2_01]
60 200.746536 -219.926590 148.838394 -90.023987 -26.311703 -52.677628 332.896027
61 200.746536 -219.926590 148.838394 -90.023987 -26.311703 -52.677628 332.896027
62 200.746536 -219.926590 148.838394 -90.024002 -26.311703 -52.677628 332.896027
[L_Toe3_01]
60 188.832520 -219.859131 -191.078659 -99.788063 13.839012 -67.673035 347.140900
61 188.832520 -219.859131 -191.078659 -99.788055 13.839008 -67.673027 347.140900
62 188.832520 -219.859131 -191.078659 -99.788055 13.839008 -67.673027 347.140900
[planeAlignerLeft]
60 0.812531 -811.448792 -0.314951 0.000000 -90.000000 -90.001900 811.449280
61 0.812531 -811.448792 -0.314951 0.000000 -90.000000 -90.001900 811.449280
62 0.812531 -811.448792 -0.314951 0.000000 -90.000000 -90.001900 811.449280
[L_Toe1_02]
60 413.761139 0.000477 0.000000 0.001384 -25.943333 0.001384 413.761139
61 413.761139 0.000477 0.000000 0.001384 -25.966528 0.001384 413.761139
62 413.761139 0.000477 0.000000 0.001384 -25.989727 0.001384 413.761139
[L_Toe1_03]
60 464.317322 0.000358 -0.000089 0.003733 53.354954 0.003733 464.317322
61 464.317322 0.000358 -0.000089 0.003733 53.356335 0.003733 464.317322
62 464.317322 0.000358 -0.000089 0.003734 53.357704 0.003734 464.317322
[L_Toe2_02]
60 342.235809 -0.000477 0.000238 0.001188 -72.402016 0.001188 342.235809
61 342.235809 -0.000477 0.000238 0.001188 -72.402016 0.001188 342.235809
62 342.235809 -0.000477 0.000238 0.001188 -72.402016 0.001188 342.235809
[L_Toe2_03]
60 420.210846 -0.000715 0.000000 0.029090 85.375511 0.029090 420.210846
61 420.210846 -0.000715 0.000000 0.029090 85.375511 0.029090 420.210846
62 420.210846 -0.000715 0.000000 0.029090 85.375511 0.029090 420.210846
[L_Toe3_02]
60 329.270111 0.000954 0.000000 0.001178 -80.480331 0.001178 329.270111
61 329.270111 0.000954 0.000000 0.001178 -80.480331 0.001178 329.270111
62 329.270111 0.000954 0.000000 0.001178 -80.480293 0.001178 329.270111
[L_Toe3_03]
60 439.137451 -0.001907 0.000954 -179.995956 78.605698 -179.992447 439.137451
61 439.137451 -0.001907 0.000954 -179.995956 78.605698 -179.992447 439.137451
62 439.137451 -0.001907 0.000954 -179.995956 78.605721 -179.992447 439.137451
[planeLockWeightLeft]
60 -0.000954 0.000238 -0.000305 -0.011826 -0.004376 0.005620 0.001029
61 -0.000954 0.000238 -0.000305 -0.011826 -0.004376 0.005620 0.001029
62 -0.000954 0.000238 -0.000305 -0.011826 -0.004376 0.005620 0.001029
[R_Leg01]
60 761.455627 -0.001907 -0.000358 120.808372 -9.165996 36.794048 761.455688
61 761.455627 -0.001907 -0.000358 120.504974 -8.692965 36.340546 761.455688
62 761.455627 -0.001907 -0.000358 120.256683 -8.324990 35.843868 761.455688
[R_Leg02]
60 1441.140625 0.000000 -0.000238 -1.366581 -0.208249 -119.623062 1441.140625
61 1441.140625 0.000000 -0.000238 -1.353995 -0.206401 -119.302216 1441.140625
62 1441.140625 0.000000 -0.000238 -1.341400 -0.204624 -118.981392 1441.140625
[R_Leg03]
60 1686.963989 0.000954 0.001431 0.078390 -0.042503 131.609573 1686.963989
61 1686.963989 0.000954 0.001431 0.077513 -0.042863 131.542343 1686.963989
62 1686.963989 0.000954 0.001431 0.076637 -0.043224 131.475098 1686.963989
[R_Foot]
60 3041.560059 -30.531288 -11.204481 -0.491320 -24.673111 55.576511 3041.734131
61 3041.560059 -30.531288 -11.204481 -0.512545 -24.678707 55.469418 3041.734131
62 3041.560059 -30.531288 -11.204481 -0.533758 -24.684336 55.362312 3041.734131
[planeAlignerRight]
60 -0.635147 -812.270569 -0.364304 0.000000 -89.960434 -90.005180 812.270874
61 -0.635147 -812.270569 -0.364304 0.000000 -89.960434 -90.005180 812.270874
62 -0.635147 -812.270569 -0.364304 0.000000 -89.960434 -90.005180 812.270874
[R_Toe1_01]
60 -188.383347 -224.864899 21.052242 76.775093 -0.443949 -173.067551 294.101532
61 -188.383347 -224.864899 21.052242 76.765770 -0.417449 -172.813065 294.101532
62 -188.383347 -224.864899 21.052242 76.764664 -0.416022 -172.770874 294.101532
[R_Toe2_01]
60 200.637817 -220.002121 -148.787384 -91.642517 32.966026 -58.946766 332.857574
61 200.637817 -220.002121 -148.787384 -91.676155 32.935322 -59.025272 332.857574
62 200.637817 -220.002121 -148.787384 -91.709740 32.904606 -59.103752 332.857574
[R_Toe3_01]
60 188.606735 -220.092957 191.126343 -73.218567 -8.535830 -73.518677 347.192566
61 188.606735 -220.092957 191.126343 -73.221008 -8.509506 -73.597855 347.192566
62 188.606735 -220.092957 191.126343 -73.223495 -8.483180 -73.677010 347.192566
[planeLockWeightRight]
60 -0.000477 0.000000 0.000000 -0.011823 -0.004379 -0.000027 0.000477
61 -0.000477 0.000000 0.000000 -0.011823 -0.004379 -0.000027 0.000477
62 -0.000477 0.000000 0.000000 -0.011823 -0.004379 -0.000027 0.000477
[R_Toe1_02]
60 413.762085 0.000477 -0.000119 0.001395 -24.583553 0.001395 413.762085
61 413.762085 0.000477 -0.000119 0.001395 -24.608860 0.001395 413.762085
62 413.762085 0.000477 -0.000119 0.001394 -24.634169 0.001394 413.762085
[R_Toe1_03]
60 464.317810 0.000000 0.001088 0.006678 69.756065 0.006678 464.317810
61 464.317810 0.000000 0.001088 0.006660 69.701828 0.006660 464.317810
62 464.317810 0.000000 0.001088 0.006643 69.647598 0.006643 464.317810
[R_Toe2_02]
60 342.234741 -0.000954 0.000238 0.001197 -67.470848 0.001197 342.234741
61 342.234741 -0.000954 0.000238 0.001197 -67.385696 0.001197 342.234741
62 342.234741 -0.000954 0.000238 0.001197 -67.300522 0.001197 342.234741
[R_Toe2_03]
60 420.210846 0.000715 -0.000268 0.008489 74.107048 0.008489 420.210846
61 420.210846 0.000715 -0.000268 0.008368 73.874992 0.008368 420.210846
62 420.210846 0.000715 -0.000268 0.008250 73.642952 0.008250 420.210846
[R_Toe3_02]
60 329.270355 -0.000477 -0.000954 0.001184 -74.773621 0.001184 329.270355
61 329.270355 -0.000477 -0.000954 0.001184 -74.688652 0.001184 329.270355
62 329.270355 -0.000477 -0.000954 0.001184 -74.603661 0.001184 329.270355
[R_Toe3_03]
60 439.137939 0.000238 0.001431 -0.012595 83.923912 -0.009094 439.137939
61 439.137939 0.000238 0.001431 -0.011918 83.518898 -0.008416 439.137939
62 439.137939 0.000238 0.001431 -0.011750 83.409622 -0.008248 439.137939
[Rear_Leg02]
60 1162.777710 -0.029802 0.005960 0.750454 -2.886714 -126.064445 1162.777710
61 1162.777710 -0.029802 0.005960 0.692219 -2.901264 -124.902786 1162.777710
62 1162.777710 -0.029802 0.005960 0.650301 -2.912528 -124.040665 1162.777710
[Rear_Leg03]
60 607.192505 -0.013351 -0.073195 0.009230 -0.003949 65.361473 607.192505
61 607.192505 -0.013351 -0.073195 0.007853 -0.003033 64.976021 607.192505
62 607.192505 -0.013351 -0.073195 0.006470 -0.002126 64.590584 607.192505
[Rear_Leg04]
60 995.874512 -0.020504 -0.011921 -0.042025 -0.016573 60.289520 995.874573
61 995.874512 -0.020504 -0.011921 -0.040674 -0.014736 59.443062 995.874573
62 995.874512 -0.020504 -0.011921 -0.040592 -0.014959 58.811920 995.874573
[Rear_Foot]
60 3096.176270 -0.067472 -0.041425 -144.444016 85.708603 48.540337 3096.176270
61 3096.176270 -0.067472 -0.041425 -143.903259 85.752182 48.979843 3096.176270
62 3096.176270 -0.067472 -0.041425 -143.855377 85.750839 48.962612 3096.176270
[planeAlignerCenter]
60 0.350077 0.966311 -838.790894 0.000009 0.000003 -179.999985 838.791565
61 0.350077 0.966311 -838.790894 0.000009 0.000003 -179.999985 838.791565
62 0.350077 0.966311 -838.790894 0.000009 0.000003 -179.999985 838.791565
[Rear_Toe1_01]
60 0.653352 83.966492 -371.173737 0.288588 41.913010 90.411545 380.553192
61 0.653352 83.966492 -371.173737 0.288422 41.913380 90.412079 380.553192
62 0.653352 83.966492 -371.173737 0.288257 41.913765 90.412636 380.553192
[Rear_Toe2_01]
60 178.200760 -294.826019 -362.060547 -7.197180 34.405704 -66.271477 499.765686
61 178.200760 -294.826019 -362.060547 -7.196873 34.405891 -66.271408 499.765686
62 178.200760 -294.826019 -362.060547 -7.196568 34.406067 -66.271332 499.765686
[Rear_Toe3_01]
60 -153.359680 -308.780914 -362.060852 3.289613 33.516586 -112.541237 499.952881
61 -153.359680 -308.780914 -362.060852 3.289544 33.517059 -112.541153 499.952881
62 -153.359680 -308.780914 -362.060852 3.289481 33.517532 -112.541069 499.952881
[planeLockWeightCenter]
60 -0.000062 0.000238 0.000000 -0.011814 -0.004373 -0.000015 0.000246
61 -0.000062 0.000238 0.000000 -0.011814 -0.004373 -0.000015 0.000246
62 -0.000062 0.000238 0.000000 -0.011814 -0.004373 -0.000015 0.000246
[Rear_Toe1_02]
60 379.707825 0.194073 0.000477 -0.000242 -31.677778 0.006934 379.707855
61 379.707825 0.194073 0.000477 -0.000242 -31.677431 0.006934 379.707855
62 379.707825 0.194073 0.000477 -0.000242 -31.677090 0.006934 379.707855
[Rear_Toe1_03]
60 500.129700 0.165701 0.000119 -0.000103 51.905785 0.007295 500.129761
61 500.129700 0.165701 0.000119 -0.000103 51.904678 0.007295 500.129761
62 500.129700 0.165701 0.000119 -0.000103 51.903580 0.007295 500.129761
[Rear_Toe2_02]
60 340.494507 0.000238 -0.000954 0.001192 -69.855743 0.001192 340.494507
61 340.494507 0.000238 -0.000954 0.001192 -69.855309 0.001192 340.494507
62 340.494507 0.000238 -0.000954 0.001192 -69.854912 0.001192 340.494507
[Rear_Toe2_03]
60 433.103577 0.000000 0.000238 0.006696 69.810341 0.006696 433.103546
61 433.103577 0.000000 0.000238 0.006696 69.810326 0.006696 433.103546
62 433.103577 0.000000 0.000238 0.006696 69.810326 0.006696 433.103546
[Rear_Toe3_02]
60 340.494141 -0.000358 -0.000477 0.008288 -67.275887 -0.009461 340.494171
61 340.494141 -0.000358 -0.000477 0.008288 -67.275497 -0.009461 340.494171
62 340.494141 -0.000358 -0.000477 0.008288 -67.275108 -0.009460 340.494171
[Rear_Toe3_03]
60 433.103577 0.001431 -0.000238 -0.000972 65.959007 -0.004547 433.103546
61 433.103577 0.001431 -0.000238 -0.000972 65.958984 -0.004547 433.103546
62 433.103577 0.001431 -0.000238 -0.000972 65.958984 -0.004547 433.103546
[Back_Bone]
60 1312.175781 -701.934692 0.000954 1.889651 0.110696 -88.934425 1488.125488
61 1312.175781 -701.934692 0.000954 1.752812 0.071714 -87.826096 1488.125488
62 1312.175781 -701.934692 0.000954 1.615231 0.035381 -86.717499 1488.125488
[Head]
60 1406.159424 809.709290 0.001431 -0.086992 -1.475647 11.094362 1622.625488
61 1406.159424 809.709290 0.001431 -0.057791 -1.476204 9.985690 1622.625488
62 1406.159424 809.709290 0.001431 -0.028580 -1.476196 8.876827 1622.625488
[Motor_Bone]
60 1158.364380 -417.834747 0.000477 -0.095385 0.076104 -105.915703 1231.419434
61 1158.364380 -417.834747 0.000477 -0.095385 0.076104 -105.915703 1231.419434
62 1158.364380 -417.834747 0.000477 -0.095385 0.076104 -105.915703 1231.419434
[Ping_Mechanism]
60 1235.252441 -441.448151 -9.269861 0.000103 -0.000053 82.120995 1311.796753
61 1234.677490 -441.462585 -5.522999 0.000103 -0.000053 82.120995 1311.239136
62 1234.102539 -441.477020 -1.776151 0.000103 -0.000053 82.120995 1310.692139
[BN_LookIK]
60 193.241119 1380.371704 -0.002861 0.000000 89.965736 -31.038179 1393.832153
61 193.241119 1380.371704 -0.002861 0.000000 89.965736 -31.038179 1393.832153
62 193.241119 1380.371704 -0.002861 0.000000 89.965736 -31.038179 1393.832153
[bottomMouth]
60 -435.092926 615.759399 -0.000954 -0.000022 0.000016 73.527184 753.966492
61 -435.092926 615.759399 -0.000954 -0.000022 0.000016 73.527184 753.966492
62 -435.092926 615.759399 -0.000954 -0.000022 0.000016 73.527184 753.966492
[L_Mouth01]
60 554.440979 7.658243 838.222046 150.204178 23.759130 109.605339 1005.027161
61 554.440979 7.658243 838.222046 150.204178 23.759130 109.605339 1005.027161
62 554.440979 7.658243 838.222046 150.204178 23.759130 109.605339 1005.027161
[L_mouthFront]
60 551.629089 934.514771 339.150421 0.000081 2.804060 79.119301 1136.941284
61 551.629089 934.514771 339.150421 0.000081 2.804060 79.119301 1136.941284
62 551.629089 934.514771 339.150421 0.000081 2.804060 79.119301 1136.941284
[mouthGun]
60 55.332661 1627.420898 0.000000 0.000023 0.000009 -11.038128 1628.361328
61 55.332661 1627.420898 0.000000 0.000023 0.000009 -11.038128 1628.361328
62 55.332661 1627.420898 0.000000 0.000023 0.000009 -11.038128 1628.361328
[R_Mouth01]
60 554.442383 7.659197 -838.223938 29.795891 -23.759109 109.605331 1005.029541
61 554.442383 7.659197 -838.223938 29.795891 -23.759109 109.605331 1005.029541
62 554.442383 7.659197 -838.223938 29.795891 -23.759109 109.605331 1005.029541
[R_mouthFront]
60 551.629089 934.514282 -339.151367 0.000029 -2.803930 79.119133 1136.941162
61 551.629089 934.514282 -339.151367 0.000029 -2.803930 79.119133 1136.941162
62 551.629089 934.514282 -339.151367 0.000029 -2.803930 79.119133 1136.941162
[TopMouth]
60 461.269867 -56.106091 -0.008583 -0.000059 -0.000268 92.025169 464.669525
61 461.269867 -56.106091 -0.008583 -0.000059 -0.000268 92.025169 464.669525
62 461.269867 -56.106091 -0.008583 -0.000059 -0.000268 92.025169 464.669525
[weapon_bone]
60 -987.239868 1448.372803 0.001431 0.000000 89.965736 -31.038221 1752.833740
61 -987.239868 1448.372803 0.001431 0.000000 89.965736 -31.038221 1752.833740
62 -987.239868 1448.372803 0.001431 0.000000 89.965736 -31.038221 1752.833740
